<svg width="26" height="25" viewBox="0 0 26 25" fill="none" xmlns="http://www.w3.org/2000/svg">
<path d="M19.7108 18.4893H8.61702C7.58577 18.4893 6.59618 18.0518 5.89827 17.2913C5.20035 16.5309 4.84619 15.5101 4.92953 14.4788L5.79411 4.10384C5.82536 3.78093 5.71077 3.46843 5.49202 3.22885C5.27327 2.98926 4.97119 2.86426 4.64827 2.86426H2.84619C2.41911 2.86426 2.06494 2.51009 2.06494 2.08301C2.06494 1.65592 2.41911 1.30176 2.84619 1.30176H4.6587C5.41911 1.30176 6.13785 1.62467 6.64827 2.17675C6.92952 2.48925 7.13785 2.85385 7.25244 3.2601H20.2629C21.3149 3.2601 22.2837 3.67676 22.992 4.42676C23.6899 5.18717 24.0441 6.17676 23.9608 7.22884L23.3983 15.0413C23.2837 16.9476 21.617 18.4893 19.7108 18.4893ZM7.30452 4.81217L6.49203 14.6038C6.43994 15.208 6.63786 15.7809 7.04411 16.2288C7.45036 16.6767 8.01285 16.9163 8.61702 16.9163H19.7108C20.7941 16.9163 21.7733 15.9997 21.8566 14.9163L22.4191 7.10385C22.4608 6.48927 22.2629 5.90593 21.8566 5.47885C21.4504 5.04135 20.8879 4.80174 20.2733 4.80174H7.30452V4.81217Z" fill="#292D32"/>
<path d="M17.6912 23.6979C16.5454 23.6979 15.6079 22.7604 15.6079 21.6146C15.6079 20.4688 16.5454 19.5312 17.6912 19.5312C18.8371 19.5312 19.7746 20.4688 19.7746 21.6146C19.7746 22.7604 18.8371 23.6979 17.6912 23.6979ZM17.6912 21.0938C17.3996 21.0938 17.1704 21.3229 17.1704 21.6146C17.1704 21.9063 17.3996 22.1354 17.6912 22.1354C17.9829 22.1354 18.2121 21.9063 18.2121 21.6146C18.2121 21.3229 17.9829 21.0938 17.6912 21.0938Z" fill="#292D32"/>
<path d="M9.35921 23.6979C8.21338 23.6979 7.27588 22.7604 7.27588 21.6146C7.27588 20.4688 8.21338 19.5312 9.35921 19.5312C10.505 19.5312 11.4425 20.4688 11.4425 21.6146C11.4425 22.7604 10.505 23.6979 9.35921 23.6979ZM9.35921 21.0938C9.06755 21.0938 8.83838 21.3229 8.83838 21.6146C8.83838 21.9063 9.06755 22.1354 9.35921 22.1354C9.65088 22.1354 9.88005 21.9063 9.88005 21.6146C9.88005 21.3229 9.65088 21.0938 9.35921 21.0938Z" fill="#292D32"/>
<path d="M22.6392 9.11426H10.1392C9.71208 9.11426 9.35791 8.76009 9.35791 8.33301C9.35791 7.90592 9.71208 7.55176 10.1392 7.55176H22.6392C23.0662 7.55176 23.4204 7.90592 23.4204 8.33301C23.4204 8.76009 23.0662 9.11426 22.6392 9.11426Z" fill="#292D32"/>
</svg>
