<svg width="26" height="25" viewBox="0 0 26 25" fill="current"  xmlns="http://www.w3.org/2000/svg">
<path d="M13.1979 22.1042C12.875 22.1042 12.5625 22.0625 12.3021 21.9687C8.32292 20.6042 2 15.7604 2 8.60417C2 4.95833 4.94792 2 8.57291 2C10.3333 2 11.9792 2.6875 13.1979 3.91667C14.4167 2.6875 16.0625 2 17.8229 2C21.4479 2 24.3958 4.96875 24.3958 8.60417C24.3958 15.7708 18.0729 20.6042 14.0937 21.9687C13.8333 22.0625 13.5208 22.1042 13.1979 22.1042ZM8.57291 3.5625C5.8125 3.5625 3.5625 5.82292 3.5625 8.60417C3.5625 15.7187 10.4062 19.6771 12.8125 20.5C13 20.5625 13.4062 20.5625 13.5937 20.5C15.9896 19.6771 22.8437 15.7292 22.8437 8.60417C22.8437 5.82292 20.5937 3.5625 17.8333 3.5625C16.25 3.5625 14.7812 4.30208 13.8333 5.58333C13.5417 5.97917 12.875 5.97917 12.5833 5.58333C11.6146 4.29167 10.1562 3.5625 8.57291 3.5625Z" fill="#292D32"/>
</svg>
