<svg width="115" height="75" viewBox="0 0 115 75" fill="none" xmlns="http://www.w3.org/2000/svg">
<path d="M27.5 75C20.2066 75 13.2118 72.1027 8.05456 66.9454C2.89731 61.7882 0 54.7935 0 47.5C0 40.2065 2.89731 33.2118 8.05456 28.0546C13.2118 22.8973 20.2066 20 27.5 20C32.5 8.25 44 0 57.5 0C74.65 0 88.7 13.3 90 30.15L92.5 30C105 30 115 40 115 52.5C115 65 105 75 92.5 75H27.5ZM27.5 25C15 25 5 35 5 47.5C5 60 15 70 27.5 70H92.5C97.1413 70 101.593 68.1563 104.874 64.8744C108.156 61.5925 110 57.1413 110 52.5C110 47.8587 108.156 43.4075 104.874 40.1256C101.593 36.8437 97.1413 35 92.5 35C89.7 35 87 35.65 84.65 36.85L85 32.5C85 25.2065 82.1027 18.2118 76.9454 13.0546C71.7882 7.89731 64.7935 5 57.5 5C51.468 5.00334 45.6038 6.98627 40.8076 10.6444C36.0114 14.3025 32.5483 19.4336 30.95 25.25L27.5 25ZM60 60V33.75L71.25 45L75 41.7L57.5 24.2L40 41.7L43.75 45L55 33.75V60H60Z" fill="#979797"/>
</svg>
